<?xml version="1.0" encoding="UTF-8"?>
<svg id="Layer_1" data-name="Layer 1" xmlns="http://www.w3.org/2000/svg" viewBox="0 0 216.24 214.8">
  <defs>
    <style>
      .cls-1 {
        fill: #fef6e0;
      }

      .cls-2 {
        fill: #c18fc5;
      }
    </style>
  </defs>
  <path class="cls-1" d="M53.27,163.45l-9.12-.02c-3.82,0-6.94-3.07-6.94-6.99V58.35c0-3.78,2.97-6.94,6.7-6.96l9.39-.04-.02-2.17c-.06-7.1,5.57-12.95,12.77-12.95h84.42c6.88,0,12.73,5.55,12.73,12.51v117.3c0,6.79-5.7,12.49-12.48,12.49h-84.91c-6.69,0-12.37-5.43-12.47-11.93l-.05-3.16ZM54.17,74.58c0-3.3-2.68-5.98-5.98-5.98s-5.98,2.68-5.98,5.98,2.68,5.98,5.98,5.98,5.98-2.68,5.98-5.98ZM107.21,143.44c3.07.57,5.98-1.48,5.98-4.66l.06-26.44h24.73c1.84,0,3.43-.62,4.56-2.02,1.07-1.59,1.25-3.63.24-5.43-.76-1.36-2.42-2.64-4.37-2.64h-25.16s-.05-26.22-.05-26.22c0-2.8-2.34-4.8-4.97-4.73-2.71-.08-5.13,1.97-5.14,4.84l-.05,26.11h-24.79c-1.53,0-2.79.71-3.84,1.7-1.41,1.47-1.93,3.46-1.08,5.47.62,1.46,2.4,2.89,4.45,2.89l25.26.03.02,25.86c0,2.49,1.76,4.55,4.14,5.23ZM54,107.4c0-3.3-2.68-5.98-5.98-5.98s-5.98,2.68-5.98,5.98,2.68,5.98,5.98,5.98,5.98-2.68,5.98-5.98ZM54.06,140.72c0-3.3-2.67-5.97-5.97-5.97s-5.97,2.67-5.97,5.97,2.67,5.97,5.97,5.97,5.97-2.67,5.97-5.97Z"/>
  <path class="cls-2" d="M107.21,143.44c-2.38-.68-4.14-2.74-4.14-5.23l-.02-25.86-25.26-.03c-2.05,0-3.83-1.43-4.45-2.89-.86-2.01-.33-4.01,1.08-5.47,1.05-.99,2.32-1.7,3.84-1.7h24.79s.05-26.11.05-26.11c0-2.87,2.43-4.92,5.14-4.84,2.63-.06,4.96,1.94,4.97,4.73l.05,26.21h25.16c1.96.01,3.61,1.28,4.37,2.65,1.01,1.8.83,3.84-.24,5.43-1.13,1.4-2.72,2.01-4.56,2.01h-24.73s-.06,26.44-.06,26.44c0,3.19-2.91,5.23-5.98,4.66Z"/>
</svg>